<svg width="420" height="320" xmlns="http://www.w3.org/2000/svg"><line x1="50" y1="250" x2="420" y2="250" stroke="black"></line><line x1="50" y1="250" x2="50" y2="50" stroke="black"></line><text x="30" y="250" font-family="Arial" font-size="12" fill="black" text-anchor="end">0</text><text x="30" y="230" font-family="Arial" font-size="12" fill="black" text-anchor="end">10</text><text x="30" y="210" font-family="Arial" font-size="12" fill="black" text-anchor="end">20</text><text x="30" y="190" font-family="Arial" font-size="12" fill="black" text-anchor="end">30</text><text x="30" y="170" font-family="Arial" font-size="12" fill="black" text-anchor="end">40</text><text x="30" y="150" font-family="Arial" font-size="12" fill="black" text-anchor="end">50</text><text x="30" y="130" font-family="Arial" font-size="12" fill="black" text-anchor="end">60</text><text x="30" y="110" font-family="Arial" font-size="12" fill="black" text-anchor="end">70</text><text x="30" y="90" font-family="Arial" font-size="12" fill="black" text-anchor="end">80</text><text x="30" y="70" font-family="Arial" font-size="12" fill="black" text-anchor="end">90</text><text x="30" y="50" font-family="Arial" font-size="12" fill="black" text-anchor="end">100</text><rect x="50" y="170" width="37.5" height="80" fill="#2196F3"></rect><text x="68.75" y="210" font-family="Arial" font-size="14" fill="black" text-anchor="middle" dominant-baseline="middle">16</text><rect x="97.5" y="160" width="37.5" height="90" fill="#4CAF50"></rect><text x="116.25" y="205" font-family="Arial" font-size="14" fill="black" text-anchor="middle" dominant-baseline="middle">18</text><rect x="145" y="50" width="37.5" height="200" fill="#F44336"></rect><text x="163.75" y="150" font-family="Arial" font-size="14" fill="black" text-anchor="middle" dominant-baseline="middle">40</text><rect x="192.5" y="125" width="37.5" height="125" fill="#FFC107"></rect><text x="211.25" y="187.5" font-family="Arial" font-size="14" fill="black" text-anchor="middle" dominant-baseline="middle">25</text><rect x="240" y="190" width="37.5" height="60" fill="#FF9800"></rect><text x="258.75" y="220" font-family="Arial" font-size="14" fill="black" text-anchor="middle" dominant-baseline="middle">12</text><rect x="287.5" y="170" width="37.5" height="80" fill="#9C27B0"></rect><text x="306.25" y="210" font-family="Arial" font-size="14" fill="black" text-anchor="middle" dominant-baseline="middle">16</text><rect x="335" y="160" width="37.5" height="90" fill="#E91E63"></rect><text x="353.75" y="205" font-family="Arial" font-size="14" fill="black" text-anchor="middle" dominant-baseline="middle">18</text><rect x="382.5" y="50" width="37.5" height="200" fill="#9E9E9E"></rect><text x="401.25" y="150" font-family="Arial" font-size="14" fill="black" text-anchor="middle" dominant-baseline="middle">40</text><text transform="rotate(-45, 68.75, 280)" x="59.375" y="287.07106781187" font-family="Arial" font-size="14" fill="#2196F3" text-anchor="middle">math</text><text transform="rotate(-45, 116.25, 280)" x="106.875" y="287.07106781187" font-family="Arial" font-size="14" fill="#4CAF50" text-anchor="middle">literature</text><text transform="rotate(-45, 163.75, 280)" x="154.375" y="287.07106781187" font-family="Arial" font-size="14" fill="#F44336" text-anchor="middle">english</text><text transform="rotate(-45, 211.25, 280)" x="201.875" y="287.07106781187" font-family="Arial" font-size="14" fill="#FFC107" text-anchor="middle">technology</text><text transform="rotate(-45, 258.75, 280)" x="249.375" y="287.07106781187" font-family="Arial" font-size="14" fill="#FF9800" text-anchor="middle">music</text><text transform="rotate(-45, 306.25, 280)" x="296.875" y="287.07106781187" font-family="Arial" font-size="14" fill="#9C27B0" text-anchor="middle">french</text><text transform="rotate(-45, 353.75, 280)" x="344.375" y="287.07106781187" font-family="Arial" font-size="14" fill="#E91E63" text-anchor="middle">spanish</text><text transform="rotate(-45, 401.25, 280)" x="391.875" y="287.07106781187" font-family="Arial" font-size="14" fill="#9E9E9E" text-anchor="middle">physics</text></svg>