<svg width="420" height="420" xmlns="http://www.w3.org/2000/svg"><path d="M200,200 L400,200 A200,200 0 0,1 371.19003461943,303.41166301244 Z" fill="#2196F3"></path><path d="M200,200 L371.19003461943,303.41166301244 A200,200 0 0,1 280.82988859313,382.93859382323 Z" fill="#4CAF50"></path><path d="M200,200 L280.82988859313,382.93859382323 A200,200 0 0,1 38.196601125011,317.55705045849 Z" fill="#F44336"></path><path d="M200,200 L38.196601125011,317.55705045849 A200,200 0 0,1 4.8537621383023,156.20564136301 Z" fill="#FFC107"></path><path d="M200,200 L4.8537621383023,156.20564136301 A200,200 0 0,1 38.19660112501,82.442949541505 Z" fill="#FF9800"></path><path d="M200,200 L38.19660112501,82.442949541505 A200,200 0 0,1 122.28820315899,15.715229517623 Z" fill="#9C27B0"></path><path d="M200,200 L122.28820315899,15.715229517623 A200,200 0 0,1 242.13585399915,4.4889522104628 Z" fill="#E91E63"></path><path d="M200,200 L242.13585399915,4.4889522104628 A200,200 0 0,1 400,200 Z" fill="#9E9E9E"></path><circle cx="200" cy="200" r="80" fill="white"></circle><text x="354.13034164513" y="242.93993228169" font-family="Arial" font-size="14" fill="#000000" text-anchor="middle" dominant-baseline="middle">math (16)</text><text x="305.70795574241" y="320.10756884044" font-family="Arial" font-size="14" fill="#000000" text-anchor="middle" dominant-baseline="middle">literature (18)</text><text x="158.3702883409" y="354.48937538608" font-family="Arial" font-size="14" fill="#000000" text-anchor="middle" dominant-baseline="middle">english (40)</text><text x="43.31058982379" y="232.37944932564" font-family="Arial" font-size="14" fill="#000000" text-anchor="middle" dominant-baseline="middle">technology (25)</text><text x="54.203441537898" y="134.09580028096" font-family="Arial" font-size="14" fill="#000000" text-anchor="middle" dominant-baseline="middle">music (12)</text><text x="100.54539318989" y="74.665323296995" font-family="Arial" font-size="14" fill="#000000" text-anchor="middle" dominant-baseline="middle">french (16)</text><text x="185.07792501686" y="40.697358219653" font-family="Arial" font-size="14" fill="#000000" text-anchor="middle" dominant-baseline="middle">spanish (18)</text><text x="324.48572069095" y="99.484800432697" font-family="Arial" font-size="14" fill="#000000" text-anchor="middle" dominant-baseline="middle">physics (40)</text></svg>
