<svg width="420" height="320" xmlns="http://www.w3.org/2000/svg"><line x1="100" y1="280" x2="100" y2="20" stroke="#000000"></line><line x1="100" y1="280" x2="420" y2="280" stroke="#000000"></line><rect x="100" y="257.5" width="112" height="22.5" fill="#2196F3"></rect><text x="156" y="268.75" font-family="Arial" font-size="12" fill="#000000" text-anchor="middle" dominant-baseline="middle">16</text><rect x="100" y="225" width="126" height="22.5" fill="#4CAF50"></rect><text x="163" y="236.25" font-family="Arial" font-size="12" fill="#000000" text-anchor="middle" dominant-baseline="middle">18</text><rect x="100" y="192.5" width="280" height="22.5" fill="#F44336"></rect><text x="240" y="203.75" font-family="Arial" font-size="12" fill="#000000" text-anchor="middle" dominant-baseline="middle">40</text><rect x="100" y="160" width="175" height="22.5" fill="#FFC107"></rect><text x="187.5" y="171.25" font-family="Arial" font-size="12" fill="#000000" text-anchor="middle" dominant-baseline="middle">25</text><rect x="100" y="127.5" width="84" height="22.5" fill="#FF9800"></rect><text x="142" y="138.75" font-family="Arial" font-size="12" fill="#000000" text-anchor="middle" dominant-baseline="middle">12</text><rect x="100" y="95" width="112" height="22.5" fill="#9C27B0"></rect><text x="156" y="106.25" font-family="Arial" font-size="12" fill="#000000" text-anchor="middle" dominant-baseline="middle">16</text><rect x="100" y="62.5" width="126" height="22.5" fill="#E91E63"></rect><text x="163" y="73.75" font-family="Arial" font-size="12" fill="#000000" text-anchor="middle" dominant-baseline="middle">18</text><rect x="100" y="30" width="280" height="22.5" fill="#9E9E9E"></rect><text x="240" y="41.25" font-family="Arial" font-size="12" fill="#000000" text-anchor="middle" dominant-baseline="middle">40</text><line x1="100" y1="280" x2="100" y2="290.5" stroke="#000000" stroke-width="0.5"></line><text x="100" y="300" font-family="Arial" font-size="12" fill="#000000" text-anchor="middle" dominant-baseline="text-before-edge" transform="rotate(-45, 100, 300)">0</text><line x1="128" y1="280" x2="128" y2="290.5" stroke="#000000" stroke-width="0.5"></line><text x="128" y="300" font-family="Arial" font-size="12" fill="#000000" text-anchor="middle" dominant-baseline="text-before-edge" transform="rotate(-45, 128, 300)">4</text><line x1="156" y1="280" x2="156" y2="290.5" stroke="#000000" stroke-width="0.5"></line><text x="156" y="300" font-family="Arial" font-size="12" fill="#000000" text-anchor="middle" dominant-baseline="text-before-edge" transform="rotate(-45, 156, 300)">8</text><line x1="184" y1="280" x2="184" y2="290.5" stroke="#000000" stroke-width="0.5"></line><text x="184" y="300" font-family="Arial" font-size="12" fill="#000000" text-anchor="middle" dominant-baseline="text-before-edge" transform="rotate(-45, 184, 300)">12</text><line x1="212" y1="280" x2="212" y2="290.5" stroke="#000000" stroke-width="0.5"></line><text x="212" y="300" font-family="Arial" font-size="12" fill="#000000" text-anchor="middle" dominant-baseline="text-before-edge" transform="rotate(-45, 212, 300)">16</text><line x1="240" y1="280" x2="240" y2="290.5" stroke="#000000" stroke-width="0.5"></line><text x="240" y="300" font-family="Arial" font-size="12" fill="#000000" text-anchor="middle" dominant-baseline="text-before-edge" transform="rotate(-45, 240, 300)">20</text><line x1="268" y1="280" x2="268" y2="290.5" stroke="#000000" stroke-width="0.5"></line><text x="268" y="300" font-family="Arial" font-size="12" fill="#000000" text-anchor="middle" dominant-baseline="text-before-edge" transform="rotate(-45, 268, 300)">24</text><line x1="296" y1="280" x2="296" y2="290.5" stroke="#000000" stroke-width="0.5"></line><text x="296" y="300" font-family="Arial" font-size="12" fill="#000000" text-anchor="middle" dominant-baseline="text-before-edge" transform="rotate(-45, 296, 300)">28</text><line x1="324" y1="280" x2="324" y2="290.5" stroke="#000000" stroke-width="0.5"></line><text x="324" y="300" font-family="Arial" font-size="12" fill="#000000" text-anchor="middle" dominant-baseline="text-before-edge" transform="rotate(-45, 324, 300)">32</text><line x1="352" y1="280" x2="352" y2="290.5" stroke="#000000" stroke-width="0.5"></line><text x="352" y="300" font-family="Arial" font-size="12" fill="#000000" text-anchor="middle" dominant-baseline="text-before-edge" transform="rotate(-45, 352, 300)">36</text><line x1="380" y1="280" x2="380" y2="290.5" stroke="#000000" stroke-width="0.5"></line><text x="380" y="300" font-family="Arial" font-size="12" fill="#000000" text-anchor="middle" dominant-baseline="text-before-edge" transform="rotate(-45, 380, 300)">40</text><text x="95" y="268.75" font-family="Arial" font-size="14" fill="#2196F3" text-anchor="end" dominant-baseline="middle">math</text><text x="95" y="236.25" font-family="Arial" font-size="14" fill="#4CAF50" text-anchor="end" dominant-baseline="middle">literature</text><text x="95" y="203.75" font-family="Arial" font-size="14" fill="#F44336" text-anchor="end" dominant-baseline="middle">english</text><text x="95" y="171.25" font-family="Arial" font-size="14" fill="#FFC107" text-anchor="end" dominant-baseline="middle">technology</text><text x="95" y="138.75" font-family="Arial" font-size="14" fill="#FF9800" text-anchor="end" dominant-baseline="middle">music</text><text x="95" y="106.25" font-family="Arial" font-size="14" fill="#9C27B0" text-anchor="end" dominant-baseline="middle">french</text><text x="95" y="73.75" font-family="Arial" font-size="14" fill="#E91E63" text-anchor="end" dominant-baseline="middle">spanish</text><text x="95" y="41.25" font-family="Arial" font-size="14" fill="#9E9E9E" text-anchor="end" dominant-baseline="middle">physics</text></svg>
