<svg width="420" height="520" xmlns="http://www.w3.org/2000/svg"><line x1="50" y1="250" x2="420" y2="250" stroke="#000000"></line><line x1="50" y1="250" x2="50" y2="50" stroke="#000000"></line><line x1="40" y1="250" x2="50.5" y2="250" stroke="#000000" stroke-width="0.5"></line><text x="30" y="255" font-family="Arial" font-size="12" fill="#000000" text-anchor="end">0</text><line x1="40" y1="230" x2="50.5" y2="230" stroke="#000000" stroke-width="0.5"></line><text x="30" y="235" font-family="Arial" font-size="12" fill="#000000" text-anchor="end">2.3</text><line x1="40" y1="210" x2="50.5" y2="210" stroke="#000000" stroke-width="0.5"></line><text x="30" y="215" font-family="Arial" font-size="12" fill="#000000" text-anchor="end">4.6</text><line x1="40" y1="190" x2="50.5" y2="190" stroke="#000000" stroke-width="0.5"></line><text x="30" y="195" font-family="Arial" font-size="12" fill="#000000" text-anchor="end">6.9</text><line x1="40" y1="170" x2="50.5" y2="170" stroke="#000000" stroke-width="0.5"></line><text x="30" y="175" font-family="Arial" font-size="12" fill="#000000" text-anchor="end">9.2</text><line x1="40" y1="150" x2="50.5" y2="150" stroke="#000000" stroke-width="0.5"></line><text x="30" y="155" font-family="Arial" font-size="12" fill="#000000" text-anchor="end">11.5</text><line x1="40" y1="130" x2="50.5" y2="130" stroke="#000000" stroke-width="0.5"></line><text x="30" y="135" font-family="Arial" font-size="12" fill="#000000" text-anchor="end">13.8</text><line x1="40" y1="110" x2="50.5" y2="110" stroke="#000000" stroke-width="0.5"></line><text x="30" y="115" font-family="Arial" font-size="12" fill="#000000" text-anchor="end">16.1</text><line x1="40" y1="90" x2="50.5" y2="90" stroke="#000000" stroke-width="0.5"></line><text x="30" y="95" font-family="Arial" font-size="12" fill="#000000" text-anchor="end">18.4</text><line x1="40" y1="70" x2="50.5" y2="70" stroke="#000000" stroke-width="0.5"></line><text x="30" y="75" font-family="Arial" font-size="12" fill="#000000" text-anchor="end">20.7</text><line x1="40" y1="50" x2="50.5" y2="50" stroke="#000000" stroke-width="0.5"></line><text x="30" y="55" font-family="Arial" font-size="12" fill="#000000" text-anchor="end">23</text><circle cx="50" cy="154.34782608696" r="4" fill="#2196F3"></circle><text x="58" y="144.34782608696" font-family="Arial" font-size="12" font-weight="bold" text-anchor="middle" fill="#2196F3">11</text><line x1="50" y1="154.34782608696" x2="200" y2="102.17391304348" stroke="#2196F3" stroke-width="3"></line><circle cx="200" cy="102.17391304348" r="4" fill="#2196F3"></circle><text x="200" y="92.173913043478" font-family="Arial" font-size="12" font-weight="bold" text-anchor="middle" fill="#2196F3">17</text><line x1="200" y1="102.17391304348" x2="350" y2="119.5652173913" stroke="#2196F3" stroke-width="3"></line><circle cx="350" cy="119.5652173913" r="4" fill="#2196F3"></circle><text x="350" y="109.5652173913" font-family="Arial" font-size="12" font-weight="bold" text-anchor="middle" fill="#2196F3">15</text><circle cx="50" cy="67.391304347826" r="4" fill="#4CAF50"></circle><text x="58" y="57.391304347826" font-family="Arial" font-size="12" font-weight="bold" text-anchor="middle" fill="#4CAF50">21</text><line x1="50" y1="67.391304347826" x2="200" y2="67.391304347826" stroke="#4CAF50" stroke-width="3"></line><circle cx="200" cy="67.391304347826" r="4" fill="#4CAF50"></circle><text x="200" y="57.391304347826" font-family="Arial" font-size="12" font-weight="bold" text-anchor="middle" fill="#4CAF50">21</text><line x1="200" y1="67.391304347826" x2="350" y2="50" stroke="#4CAF50" stroke-width="3"></line><circle cx="350" cy="50" r="4" fill="#4CAF50"></circle><text x="350" y="40" font-family="Arial" font-size="12" font-weight="bold" text-anchor="middle" fill="#4CAF50">23</text><circle cx="50" cy="128.26086956522" r="4" fill="#F44336"></circle><text x="58" y="118.26086956522" font-family="Arial" font-size="12" font-weight="bold" text-anchor="middle" fill="#F44336">14</text><line x1="50" y1="128.26086956522" x2="200" y2="171.73913043478" stroke="#F44336" stroke-width="3"></line><circle cx="200" cy="171.73913043478" r="4" fill="#F44336"></circle><text x="200" y="161.73913043478" font-family="Arial" font-size="12" font-weight="bold" text-anchor="middle" fill="#F44336">9</text><line x1="200" y1="171.73913043478" x2="350" y2="93.478260869565" stroke="#F44336" stroke-width="3"></line><circle cx="350" cy="93.478260869565" r="4" fill="#F44336"></circle><text x="350" y="83.478260869565" font-family="Arial" font-size="12" font-weight="bold" text-anchor="middle" fill="#F44336">18</text><text transform="rotate(-45, 32, 260)" x="32" y="297.07106781187" font-family="Arial" font-size="14" text-anchor="middle" fill="#000000">2020/2021</text><text transform="rotate(-45, 182, 260)" x="182" y="297.07106781187" font-family="Arial" font-size="14" text-anchor="middle" fill="#000000">2021/2022</text><text transform="rotate(-45, 332, 260)" x="332" y="297.07106781187" font-family="Arial" font-size="14" text-anchor="middle" fill="#000000">2023/2024</text><circle cx="50" cy="340" r="5" fill="#2196F3"></circle><text x="50" y="360" font-family="Arial" font-size="12" text-anchor="middle" fill="#2196F3">math</text><circle cx="200" cy="340" r="5" fill="#4CAF50"></circle><text x="200" y="360" font-family="Arial" font-size="12" text-anchor="middle" fill="#4CAF50">literature</text><circle cx="350" cy="340" r="5" fill="#F44336"></circle><text x="350" y="360" font-family="Arial" font-size="12" text-anchor="middle" fill="#F44336">english</text></svg>
