<svg width="420" height="420" xmlns="http://www.w3.org/2000/svg"><path d="M200,200 L400,200 A200,200 0 0,1 371.19003461943,303.41166301244 Z" fill="#2196F3"></path><path d="M200,200 L371.19003461943,303.41166301244 A200,200 0 0,1 280.82988859313,382.93859382323 Z" fill="#4CAF50"></path><path d="M200,200 L280.82988859313,382.93859382323 A200,200 0 0,1 38.196601125011,317.55705045849 Z" fill="#F44336"></path><path d="M200,200 L38.196601125011,317.55705045849 A200,200 0 0,1 4.8537621383023,156.20564136301 Z" fill="#FFC107"></path><path d="M200,200 L4.8537621383023,156.20564136301 A200,200 0 0,1 38.19660112501,82.442949541505 Z" fill="#FF9800"></path><path d="M200,200 L38.19660112501,82.442949541505 A200,200 0 0,1 122.28820315899,15.715229517623 Z" fill="#9C27B0"></path><path d="M200,200 L122.28820315899,15.715229517623 A200,200 0 0,1 242.13585399915,4.4889522104628 Z" fill="#E91E63"></path><path d="M200,200 L242.13585399915,4.4889522104628 A200,200 0 0,1 400,200 Z" fill="#9E9E9E"></path><text x="296.3314635282" y="226.83745767606" font-family="Arial" font-size="14" fill="#000000" text-anchor="middle" dominant-baseline="middle">math (16)</text><text x="266.06747233901" y="275.06723052527" font-family="Arial" font-size="14" fill="#000000" text-anchor="middle" dominant-baseline="middle">literature (18)</text><text x="173.98143021306" y="296.5558596163" font-family="Arial" font-size="14" fill="#000000" text-anchor="middle" dominant-baseline="middle">english (40)</text><text x="102.06911863987" y="220.23715582852" font-family="Arial" font-size="14" fill="#000000" text-anchor="middle" dominant-baseline="middle">technology (25)</text><text x="108.87715096119" y="158.8098751756" font-family="Arial" font-size="14" fill="#000000" text-anchor="middle" dominant-baseline="middle">music (12)</text><text x="137.84087074368" y="121.66582706062" font-family="Arial" font-size="14" fill="#000000" text-anchor="middle" dominant-baseline="middle">french (16)</text><text x="190.67370313554" y="100.43584888728" font-family="Arial" font-size="14" fill="#000000" text-anchor="middle" dominant-baseline="middle">spanish (18)</text><text x="277.80357543184" y="137.17800027044" font-family="Arial" font-size="14" fill="#000000" text-anchor="middle" dominant-baseline="middle">physics (40)</text></svg>
